# xmcd
#
# Track frame offsets:
#	150
#	15963
#	30268
#	46252
#	59479
#	79903
#	93922
#	111403
#	128847
#	141449
#	157697
#
# Disc length: 2397 seconds
# Revision: 0
# Processed by: cddbd v1.5.2PL0 Copyright (c) Steve Scherf et al.
# Submitted via: dBpowerAMP V12.0
#
DISCID=81095b0b
DTITLE=Kacey Smith - Country Girl
DYEAR=2012
DGENRE=Country
TTITLE0=Country Girl
TTITLE1=You Stop Time
TTITLE2=Im Gonna Fly
TTITLE3=So Good
TTITLE4=Lovin On The Side
TTITLE5=Miranda And Merle
TTITLE6=Down To Mexico
TTITLE7=Sometimes Love Is Not Enough
TTITLE8=Alabama Boy
TTITLE9=What Happened To Goodbye
TTITLE10=Poison
EXTD=
EXTT0=
EXTT1=
EXTT2=
EXTT3=
EXTT4=
EXTT5=
EXTT6=
EXTT7=
EXTT8=
EXTT9=
EXTT10=
PLAYORDER=
